External Loads File
version=1
nRows=61
nColumns=13
Range=5.000000e-03-10 seconds
endheader
time 	forceRightX 	forceRightY 	forceRightZ 	pointRightX 	pointRightY 	pointRightZ 	forceLeftX 	forceLeftY 	forceLeftZ 	pointLeftX 	pointLeftY 	pointLeftZ 		
2.505000 -285.994943 734.308618 -0.000000 0.352329 0.445533 -0.150074 889.242553 -518.830672 -0.000000 0.145949 0.209471 -0.377160
2.510000 -299.013542 758.237400 -0.000000 0.357561 0.438332 -0.149996 858.393751 -568.295848 -0.000000 0.140199 0.216120 -0.377147
2.515000 -310.093687 779.985995 -0.000000 0.362746 0.430655 -0.149874 823.802278 -617.563503 -0.000000 0.134884 0.223130 -0.376956
2.520000 -319.653891 800.094200 -0.000000 0.367814 0.422846 -0.149707 785.897796 -665.786869 -0.000000 0.129949 0.230474 -0.376545
2.525000 -327.178247 819.485657 -0.000000 0.372648 0.414753 -0.149274 744.513207 -713.062313 -0.000000 0.125359 0.238193 -0.376745
2.530000 -332.734600 838.547474 -0.000000 0.377302 0.406482 -0.149265 700.165113 -758.777025 -0.000000 0.121190 0.246111 -0.376637
2.535000 -335.935146 857.494687 -0.000000 0.381607 0.397996 -0.148994 653.074144 -802.766761 -0.000000 0.117512 0.254286 -0.376530
2.540000 -336.897181 876.222430 -0.000000 0.385577 0.389458 -0.148785 603.780007 -844.635317 -0.000000 0.114322 0.262641 -0.376445
2.545000 -335.639325 894.697023 -0.000000 0.388923 0.380824 -0.147945 552.462232 -884.264523 -0.000000 0.111626 0.271186 -0.376342
2.550000 -331.535980 913.157846 -0.000000 0.392287 0.372102 -0.147666 498.351596 -921.899196 -0.000000 0.109382 0.279871 -0.376323
2.555000 -324.221909 931.801949 -0.000000 0.395296 0.363078 -0.147336 440.590081 -957.299224 -0.000000 0.107541 0.288834 -0.376211
2.560000 -314.472238 950.510503 -0.000000 0.398065 0.353882 -0.147043 379.260782 -989.249924 -0.000000 0.106192 0.298076 -0.376066
2.565000 -305.244697 968.512714 -0.000000 0.400451 0.344814 -0.146838 316.910489 -1015.362031 -0.000000 0.105276 0.307139 -0.376040
2.570000 -294.603632 986.562839 -0.000000 0.402694 0.335632 -0.147387 251.612873 -1034.491178 -0.000000 0.104688 0.316397 -0.376122
2.575000 -282.800065 1004.475204 -0.000000 0.404187 0.326352 -0.147110 184.565124 -1043.743878 -0.000000 0.104707 0.325735 -0.376195
2.580000 -269.455894 1022.082873 -0.000000 0.405275 0.317048 -0.146853 117.046909 -1039.835264 -0.000000 0.105219 0.335127 -0.376295
2.585000 -254.927252 1038.996336 -0.000000 0.405969 0.307748 -0.146878 51.566173 -1019.104159 -0.000000 0.106235 0.344437 -0.376380
2.590000 -236.966335 1055.546760 -0.000000 0.406113 0.298520 -0.147293 -11.338419 -978.058863 -0.000000 0.107685 0.354415 -0.376406
2.595000 -220.794079 1070.426877 -0.000000 0.405831 0.289238 -0.147200 -63.309933 -913.931182 -0.000000 0.109635 0.363514 -0.376575
2.600000 -204.770501 1083.967631 -0.000000 0.405798 0.280035 -0.149567 -102.185315 -826.001606 -0.000000 0.111988 0.372631 -0.376571
2.605000 -185.611178 1096.521146 -0.000000 0.403428 0.270847 -0.146477 -126.644514 -716.104058 -0.000000 0.114701 0.381733 -0.376568
2.610000 -166.342779 1107.053633 -0.000000 0.401542 0.261785 -0.146355 -132.200101 -591.274252 -0.000000 0.118041 0.390869 -0.376748
2.615000 -146.602303 1115.003247 -0.000000 0.399208 0.252931 -0.145959 -120.552625 -463.160153 -0.000000 0.121948 0.399813 -0.376673
2.620000 -126.586630 1119.544889 -0.000000 0.396470 0.244301 -0.145725 -96.738062 -345.006602 -0.000000 0.126137 0.408594 -0.376667
2.625000 -107.204502 1119.700849 -0.000000 0.393281 0.235838 -0.145444 -67.293837 -246.395071 -0.000000 0.130092 0.417139 -0.376092
2.630000 -84.659539 1114.939558 -0.000000 0.389772 0.227887 -0.145504 -38.823658 -170.750431 -0.000000 0.135889 0.425640 -0.376842
2.635000 -63.985989 1104.144823 -0.000000 0.385709 0.220132 -0.145182 -14.278965 -117.438441 -0.000000 0.140819 0.433893 -0.376206
2.640000 -45.144555 1087.183890 -0.000000 0.381342 0.212576 -0.144834 3.982973 -83.004438 -0.000000 0.145719 0.441568 -0.375777
2.645000 -24.446258 1064.486294 -0.000000 0.376566 0.205417 -0.144568 15.150756 -63.227857 -0.000000 0.151485 0.449596 -0.375303
2.650000 -2.087025 1036.586142 -0.000000 0.371402 0.198643 -0.144471 19.892744 -53.989341 -0.000000 0.159130 0.456910 -0.375720
2.655000 15.909603 1004.381208 -0.000000 0.365953 0.192136 -0.144119 19.643257 -51.512154 -0.000000 0.165660 0.464177 -0.375789
2.660000 31.944126 969.036087 -0.000000 0.359799 0.186198 -0.143668 15.631894 -52.946492 -0.000000 0.172511 0.470405 -0.375952
2.665000 45.589586 931.576229 -0.000000 0.353699 0.180860 -0.143635 9.251799 -56.211431 -0.000000 0.179515 0.476481 -0.375834
2.670000 57.834109 892.680166 -0.000000 0.347429 0.175344 -0.143629 1.630919 -59.938630 -0.000000 0.186550 0.482050 -0.375783
2.675000 68.685263 852.743045 -0.000000 0.340879 0.170775 -0.143659 -6.307650 -63.316053 -0.000000 0.193910 0.487308 -0.375955
2.680000 78.655305 811.873262 -0.000000 0.334174 0.166492 -0.143648 -13.956868 -65.966886 -0.000000 0.201634 0.491985 -0.375892
2.685000 87.827075 770.008656 -0.000000 0.327182 0.162689 -0.143560 -20.953433 -67.787004 -0.000000 0.209532 0.496284 -0.375838
2.690000 96.022891 726.978112 -0.000000 0.319960 0.159377 -0.143402 -27.120142 -68.851826 -0.000000 0.217577 0.499998 -0.375860
2.695000 103.836822 682.428964 -0.000000 0.312511 0.156533 -0.143293 -32.505350 -69.288477 -0.000000 0.226049 0.503000 -0.375644
2.700000 109.724578 636.331030 -0.000000 0.304912 0.154251 -0.143105 -37.056551 -69.285247 -0.000000 0.234067 0.505646 -0.375613
2.705000 115.060251 588.312381 -0.000000 0.297085 0.152602 -0.142850 -41.067550 -68.824961 -0.000000 0.242322 0.507747 -0.375760
2.710000 119.366872 538.446259 -0.000000 0.289078 0.151372 -0.142659 -44.632785 -67.957891 -0.000000 0.250582 0.509032 -0.375813
2.715000 122.516392 486.967451 -0.000000 0.280927 0.150769 -0.142331 -47.842895 -66.699676 -0.000000 0.258732 0.509903 -0.376209
2.720000 124.581329 434.302824 -0.000000 0.272611 0.150804 -0.142799 -50.770939 -65.030422 -0.000000 0.266818 0.510011 -0.376277
2.725000 125.555894 381.151490 -0.000000 0.264237 0.151450 -0.142797 -53.435594 -62.990866 -0.000000 0.274839 0.509688 -0.376489
2.730000 125.284231 328.528358 -0.000000 0.255833 0.152750 -0.142821 -55.785478 -60.711896 -0.000000 0.282593 0.508980 -0.376814
2.735000 123.996817 277.530339 -0.000000 0.247434 0.154623 -0.142896 -57.788186 -58.276811 -0.000000 0.290125 0.507108 -0.377171
2.740000 121.914784 229.325873 -0.000000 0.239008 0.157122 -0.143128 -59.375332 -55.766127 -0.000000 0.297439 0.504072 -0.377613
2.745000 119.112087 185.137734 -0.000000 0.230605 0.159985 -0.143408 -60.398378 -53.327427 -0.000000 0.304544 0.500760 -0.377968
2.750000 116.080231 145.851958 -0.000000 0.222197 0.163551 -0.143632 -60.766289 -51.014517 -0.000000 0.311480 0.496724 -0.378452
2.755000 113.225003 112.171107 -0.000000 0.213813 0.167575 -0.143758 -60.366208 -48.927830 -0.000000 0.318230 0.492007 -0.379031
2.760000 110.994490 84.450912 -0.000000 0.205616 0.172094 -0.143890 -59.158736 -47.181031 -0.000000 0.324856 0.486858 -0.379424
2.765000 109.892481 62.495146 -0.000000 0.197456 0.177126 -0.143961 -57.305156 -45.742582 -0.000000 0.331352 0.480783 -0.379847
2.770000 110.064835 46.036320 -0.000000 0.189507 0.182543 -0.144038 -55.044281 -44.615003 -0.000000 0.337816 0.474706 -0.380110
2.775000 111.606646 34.285961 -0.000000 0.181833 0.188532 -0.144106 -52.971911 -43.482776 -0.000000 0.344218 0.467988 -0.380345
2.780000 114.298847 26.464386 -0.000000 0.174583 0.194959 -0.144139 -51.884557 -41.803896 -0.000000 0.350478 0.460844 -0.380487
2.785000 117.776258 21.617021 -0.000000 0.167766 0.201767 -0.144097 -52.909377 -38.541201 -0.000000 0.356664 0.453378 -0.380579
2.790000 121.517125 19.026688 -0.000000 0.161541 0.208909 -0.144275 -57.357036 -32.185730 -0.000000 0.362466 0.445868 -0.380521
2.795000 125.063685 17.428521 -0.000000 0.155815 0.216432 -0.144438 -66.790161 -20.214158 -0.000000 0.368541 0.437583 -0.380676
2.800000 127.898596 16.392421 -0.000000 0.150470 0.224375 -0.144137 -82.352117 0.338516 -0.000000 0.374127 0.428981 -0.380656
2.805000 129.687527 15.511737 -0.000000 0.145918 0.232633 -0.144465 -104.738632 33.031079 -0.000000 0.379413 0.420159 -0.380675
